<svg width="365" height="68" viewBox="0 0 365 68" fill="none" xmlns="http://www.w3.org/2000/svg">
<path d="M0.405273 66L0.405273 1.57617H11.04V26.9326H31.958V1.57617H42.6367V66H31.958V37.8311H11.04V66H0.405273ZM71.623 1.57617H92.7607C98.5322 1.57617 102.59 2.10351 104.934 3.1582C107.277 4.21289 109.255 6.07324 110.866 8.73926C112.478 11.4053 113.283 14.4228 113.283 17.792C113.283 20.8975 112.595 23.71 111.218 26.2295C109.841 28.7197 108.054 30.5654 105.856 31.7666C108.991 32.8799 111.437 34.7842 113.195 37.4795C114.982 40.1748 115.876 43.4561 115.876 47.3232C115.876 52.0107 114.748 55.9805 112.492 59.2324C110.236 62.4551 107.57 64.4473 104.494 65.209C102.355 65.7363 97.3896 66 89.5967 66H71.623V1.57617ZM82.2578 12.2988V27.1963H89.2891C93.5078 27.1963 96.1152 27.123 97.1113 26.9766C98.9277 26.6836 100.349 25.9219 101.374 24.6914C102.399 23.4316 102.912 21.7324 102.912 19.5937C102.912 17.6895 102.487 16.1514 101.638 14.9795C100.817 13.7783 99.8066 13.0312 98.6055 12.7383C97.4336 12.4453 94.0352 12.2988 88.4102 12.2988H82.2578ZM82.2578 37.9189V55.1455H92.1455C96.4814 55.1455 99.2646 54.9258 100.495 54.4863C101.726 54.0176 102.751 53.124 103.571 51.8057C104.421 50.458 104.846 48.7588 104.846 46.708C104.846 44.5986 104.392 42.8701 103.483 41.5225C102.604 40.1455 101.418 39.208 99.9238 38.71C98.459 38.1826 95.4414 37.9189 90.8711 37.9189H82.2578ZM142.577 66V1.57617H153.212V66H142.577ZM181.583 66V1.57617H191.954L213.575 44.5986V1.57617H223.507V66H212.784L191.515 23.9883V66H181.583ZM252.801 66V1.57617H289.012V12.4746H263.436V27.7236H285.54V38.6221H263.436V66H252.801ZM313.691 34.1836C313.691 26.5078 314.819 20.1943 317.075 15.2432C319.36 10.2627 322.334 6.55664 325.996 4.125C329.658 1.69336 334.097 0.477538 339.312 0.477538C346.87 0.477538 353.022 3.36328 357.769 9.13476C362.544 14.9062 364.932 23.124 364.932 33.7881C364.932 44.5693 362.412 52.9922 357.373 59.0566C352.949 64.418 346.943 67.0986 339.355 67.0986C331.709 67.0986 325.674 64.4473 321.25 59.1445C316.211 53.0801 313.691 44.7598 313.691 34.1836ZM324.678 33.7441C324.678 41.1562 326.084 46.7227 328.896 50.4434C331.709 54.1348 335.195 55.9805 339.355 55.9805C343.545 55.9805 347.017 54.1494 349.77 50.4873C352.524 46.7959 353.901 41.1416 353.901 33.5244C353.901 26.0537 352.554 20.5312 349.858 16.957C347.192 13.3828 343.691 11.5957 339.355 11.5957C335.02 11.5957 331.489 13.3975 328.765 17.001C326.04 20.6045 324.678 26.1855 324.678 33.7441Z" fill="white"/>
</svg>
